<?xml version="1.0" encoding="UTF-8"?>
<!-- Generator: Adobe Illustrator 13.0.2, SVG Export Plug-In . SVG Version: 6.00 Build 14948)  -->
<!DOCTYPE svg PUBLIC "-//W3C//DTD SVG 1.0//EN" "http://www.w3.org/TR/2001/REC-SVG-20010904/DTD/svg10.dtd" [
	<!ENTITY ns_extend "http://ns.adobe.com/Extensibility/1.0/">
	<!ENTITY ns_ai "http://ns.adobe.com/AdobeIllustrator/10.0/">
	<!ENTITY ns_graphs "http://ns.adobe.com/Graphs/1.0/">
	<!ENTITY ns_vars "http://ns.adobe.com/Variables/1.0/">
	<!ENTITY ns_imrep "http://ns.adobe.com/ImageReplacement/1.0/">
	<!ENTITY ns_sfw "http://ns.adobe.com/SaveForWeb/1.0/">
	<!ENTITY ns_custom "http://ns.adobe.com/GenericCustomNamespace/1.0/">
	<!ENTITY ns_adobe_xpath "http://ns.adobe.com/XPath/1.0/">
]>
<svg version="1.0" id="Layer_1" xmlns:x="http://ns.adobe.com/Extensibility/1.0/" xmlns:i="http://ns.adobe.com/AdobeIllustrator/10.0/" xmlns:graph="http://ns.adobe.com/Graphs/1.0/" xmlns="http://www.w3.org/2000/svg" xmlns:xlink="http://www.w3.org/1999/xlink" x="0px" y="0px" width="128.27px" height="94.937px" viewBox="0 0 128.27 94.937" enable-background="new 0 0 128.27 94.937" xml:space="preserve">
<metadata><?xpacket begin="﻿" id="W5M0MpCehiHzreSzNTczkc9d"?>
<x:xmpmeta xmlns:x="adobe:ns:meta/" x:xmptk="Adobe XMP Core 4.1-c036 46.277092, Fri Feb 23 2007 14:16:18        ">
   <rdf:RDF xmlns:rdf="http://www.w3.org/1999/02/22-rdf-syntax-ns#">
      <rdf:Description rdf:about="" xmlns:dc="http://purl.org/dc/elements/1.1/">
         <dc:format>image/svg+xml</dc:format>
         <dc:description>
            <rdf:Alt>
               <rdf:li xml:lang="x-default">Network Connectivity</rdf:li>
            </rdf:Alt>
         </dc:description>
         <dc:creator>
            <rdf:Seq>
               <rdf:li>Michael Kratz</rdf:li>
            </rdf:Seq>
         </dc:creator>
         <dc:title>
            <rdf:Alt>
               <rdf:li xml:lang="x-default">Internode International IP Network Diagram</rdf:li>
            </rdf:Alt>
         </dc:title>
      </rdf:Description>
      <rdf:Description rdf:about="" xmlns:xap="http://ns.adobe.com/xap/1.0/" xmlns:xapGImg="http://ns.adobe.com/xap/1.0/g/img/">
         <xap:CreatorTool>Adobe Illustrator CS3</xap:CreatorTool>
         <xap:CreateDate>2010-07-19T07:54:07+10:00</xap:CreateDate>
         <xap:ModifyDate>2010-07-19T07:54:07+10:00</xap:ModifyDate>
         <xap:MetadataDate>2010-07-19T07:54:07+10:00</xap:MetadataDate>
         <xap:Thumbnails>
            <rdf:Alt>
               <rdf:li rdf:parseType="Resource">
                  <xapGImg:width>256</xapGImg:width>
                  <xapGImg:height>188</xapGImg:height>
                  <xapGImg:format>JPEG</xapGImg:format>
                  <xapGImg:image>/9j/4AAQSkZJRgABAgEASABIAAD/7QAsUGhvdG9zaG9wIDMuMAA4QklNA+0AAAAAABAASAAAAAEA
AQBIAAAAAQAB/+4ADkFkb2JlAGTAAAAAAf/bAIQABgQEBAUEBgUFBgkGBQYJCwgGBggLDAoKCwoK
DBAMDAwMDAwQDA4PEA8ODBMTFBQTExwbGxscHx8fHx8fHx8fHwEHBwcNDA0YEBAYGhURFRofHx8f
Hx8fHx8fHx8fHx8fHx8fHx8fHx8fHx8fHx8fHx8fHx8fHx8fHx8fHx8fHx8f/8AAEQgAvAEAAwER
AAIRAQMRAf/EAaIAAAAHAQEBAQEAAAAAAAAAAAQFAwIGAQAHCAkKCwEAAgIDAQEBAQEAAAAAAAAA
AQACAwQFBgcICQoLEAACAQMDAgQCBgcDBAIGAnMBAgMRBAAFIRIxQVEGE2EicYEUMpGhBxWxQiPB
UtHhMxZi8CRygvElQzRTkqKyY3PCNUQnk6OzNhdUZHTD0uIIJoMJChgZhJRFRqS0VtNVKBry4/PE
1OT0ZXWFlaW1xdXl9WZ2hpamtsbW5vY3R1dnd4eXp7fH1+f3OEhYaHiImKi4yNjo+Ck5SVlpeYmZ
qbnJ2en5KjpKWmp6ipqqusra6voRAAICAQIDBQUEBQYECAMDbQEAAhEDBCESMUEFURNhIgZxgZEy
obHwFMHR4SNCFVJicvEzJDRDghaSUyWiY7LCB3PSNeJEgxdUkwgJChgZJjZFGidkdFU38qOzwygp
0+PzhJSktMTU5PRldYWVpbXF1eX1RlZmdoaWprbG1ub2R1dnd4eXp7fH1+f3OEhYaHiImKi4yNjo
+DlJWWl5iZmpucnZ6fkqOkpaanqKmqq6ytrq+v/aAAwDAQACEQMRAD8A9U4q7FXYq7FXYq7FXYq7
FXYqg9V1jTtKtTc386wxDZa7sx8FUbk/LKsuaOMXI024sMshqIt5zrf5r38rNHpEK20XQTygPIfc
L9hfxzSZ+1pHaAp3eDsmI3mbYle+YddvSTdX88oP7Bdgv0KKKPuzXT1OSXORdjDTY48ohLySTU7k
9TlLcqQXVzA3KCZ4m61Rip/DDGZHI0iUAeYtOrDz15psiOF+8qDqk9JQfperfccysevzR/iv37uL
k0GGX8Ne7Zlukfm3C5WPVrT060BntzyX6UbcD5Mc2WHtccpj5OtzdkHnA/NnOm6vpupwevYXCXEf
fid19mU7qfnm2xZo5BcTbqcuGWM1IUi8sa3Yq7FXYq7FXYq7FXYq7FXYq7FXYq7FXYq7FXYq7FXY
q7FXYq7FXYq7FUq8yeY7DQrA3NyeUrVFvAD8UjeA9h3OY+p1McUbPwcjTaaWWVD4vFNa1vUNZvnu
72Tk52RB9hF7Kg7DOVz55ZZcUnqsGCOKPDFAojyOqRqXdiAqqKkk9AAMqAvk2k1zZfp/5dXC2ovt
du49KtOvF6GQ+xBICk/SfbNlj7NNcWQ8Adbk7SF8OMcZXSSflfYngsN5qjD9ssUU/cYT+GEnSQ6S
n+PggDVz6xh+PioHVvy7ccTodxEP50ndm+5npkfG0x/gPz/ay8HUj+MfL9i06X5Fv/8AeDVJ9Plb
7MV9GGSvhzTZfpOR8LTz+mRif6TLxdRD6oiQ/opdq3lPWdNh+svGtxZHdb22YSwkePIdPpGU5tJO
AvnHvG4bsOrhM1yl3HYpdZX95Y3C3FnM8Ey9HQ0PyPiPbKIZJQNxNFvnjjMVIWHpPlb8z4bgpaa2
FhmOyXiikbH/ACx+z8+nyze6XtQS9OTY97otV2WY+rHuO5nysrKGUgqRUEbgg5uHTt4q7FXYq7FX
Yq7FXYq7FXYq7FXYq7FXYq7FXYq7FXYq7FXYq7FVC+vbexs5ry5bhBApeRvYeHvkMkxCJkeQZ44G
chEcy8J8xa9d63qcl7OSFPwwRV2SMHZR/H3zktTqDlnxF63TacYocIS0AsQqipOwA6k5Q3vTNM0z
TfJOiDWNTjE2szCkEO1VZh9hfCg+230fPe4sUdLj457zP4/tdFlyy1WTghtAfj+xgWta7qes3Zub
6Uu2/pxjZEB7IvbNRnzzym5F2+DBDFGohrSdC1bVpTHp9s05X7bCgRf9Zmoo+/Bh088hqItObUQx
i5GmRr+VPmYx8y9sG/32ZG5fgnH8czv5Jy10cH+VsV9Un1Xyf5j0tGkurN/RXrNHSRAPEla8f9lT
MXNo8uPcjZysOsxZNgd0LpOu6rpMvqWNw0YP24j8UbjwZDschh1E8ZuJbM2nhkFSCdC30TzLX6mq
aXrh/wCPWtLa4P8AxWT/AHbH+XpmVw48/wBPoyd3Q+7ucTiyYPq9ePv6j397Grq1uLW4kt7mNop4
jxkjYUIOYEomJo83PjISFjkynyb58utGdLS8LT6WTTj1eKvdPbxX7s2Gi15xemW8PudfrdAMvqjt
P73rtrdW93bx3NtIssEqho5FNQQc6SExIWOTzc4GJo81XJMXYq7FXYq7FXYq7FXYq7FXYq7FXYq7
FXYq7FXYq7FXYq7FXnf5s62UjttHianqfv7mn8oNEU/SCfoGaXtfPsID3l3XZGDczPuDzPNE71mX
5Y6Gl/rbXsy8oNPAcA9DK39391C3zAzZ9l4OPJxHlH73WdqZ+DHwjnL7kF+YOtPqfmKdFattZE28
AHSqn42+lvwplXaOfxMp7o7NvZ2Dw8Q75bpRoelS6tq1tp8Ro070Zv5VG7N9Cg5jYMRyTER1cnPl
GOBkej3nTdNs9Nso7OzjEcEQoAOpPdmPcnuc67FijCPDHk8jlyynLilzROWNbsVYZ5t/Lqx1JHut
MRbXUBVig2jlPgR0VvcfTmr1fZsZ7w2l97tNJ2lKG094/c8nnguLa4eGZGiniYq6MKMrDOdlExNH
Yh6KMhIWOTJ7K7g802yaZqLhNbiXjp2oMf74DpBMT1J/Zb/M7CExqBwS/vByPf5F184HTnjj/dnm
O7zDGLm2ntbiS3uEMc8TFJEbqGGxGa+UTE0eYdhGQkLHIsl8j+cpdDuvq1yS+mTt+8Xc+kx/bUf8
SGZ+h1pxGj9B+xwNdohlFj6x9r2SOSOWNZI2DxuAyOpqCCKggjxzpgQRYeZIINFdhQ7FXYq7FXYq
7FXYq7FXYq7FXYq7FXYq7FXYq7FXYq7FXhPnLUDf+ZtQnrVFlMUfhxi+AU+fGucjrcnHlkfP7nrt
Fj4MUR5fekuYzkvXfy3gSy8nve8atM80ze4j+AD/AITOj7Njw4OLvsvOdpS4s/D3UHkjuzuzsasx
JYnuT1znCbejApmH5VJG3mdi32ktpGT58lH6ic2fZI/e/B1nax/dfF69nSPNuxV2KuxVgv5m+V1u
7I6zbJ/pVqP9JA/bhH7R90/Vmp7U0vFHjHMc/c7bsvVcMuA8jy97ypWZWDKSGBqCNiCM556FmF9E
PNPl86tEK63pihNRQdZoQPhlp/MAN/p9s2WQfmMfGP7yPPzHe63Gfy+TgP8Ady5eR7mHZrXZPR/y
x81kMNCvH+E1Ni7Hoepi/iv3eGbvsvV/5OXw/U6TtTSf5SPx/W9JzeOjdirsVdirsVdirsVdirsV
dirsVdirsVdirsVdirsVWTyiGGSVukalj8lFcEjQtMRZp86O7O7OxqzElj4k5xJNvbAUtxV7L5IU
y+QII03cx3K09zLJT9edNoRemA9/3l5nXGtST7vuDxrOZemT/wAjamuneZ7KWQ8YpWMEh9pRxFfk
1DmXoMvBlB6cnE1+LjxEDnze451jybsVdirsVWzRRzRPFIvKORSjqehVhQjAQCKKQSDYfPOoWhs7
+5tGNWt5XiJ90Yr/AAzjMkOGRj3F7PHPiiJd4TXyVrR0nzBbzM1LaY+hcg9ODmlT/qmhzI0Ofw8g
PQ7Fx9dg8TGR1G4VPPPl8aLrskcS0s7j99beAUn4k/2LbfKmHX6fwslD6TuEaDUeLjs/UNikMM0s
MqTRMUljYOjjYhlNQRmICQbDlkAii948r64mtaLBfCglI4XCD9mVdmH09R7HOu0ufxcYl8/e8jqs
HhZDH5e5NcyHHdirsVdirsVdirsVdirsVdirsVdirsVdirsVdiqG1P8A45t3/wAYZP8AiJyGX6T7
meL6h73zxnFvaOxV67+VN4JfLsluT8VtOwp/kuAw/EnOj7JneKu4vOdrQrLfeHmXmDTzp2t3tmRQ
QzMEH+QTVD/wJGaLUY+DIY9xd7p8nHjEu8JflLc9q8ieaI9a0pY5X/3I2qhLhT1YDYSD59/f6M6j
QaoZYUfqHP8AW8vr9KcU7H0nl+pk2Z7gOxV2KuxV4B5jmSbzBqUqU4PdTFadx6hofpzjtSbySP8A
SL2OmFY4j+iEuylueoeZoP07+XllqlOV1aRpKzdzT93N+I5fRm+1UfF0wn1H9hdDpZeFqTDof7Q8
vzQu+Z3+VOsGDVZtMkb91eLziB/37GK7fNK/dm27JzVMwPX73U9rYbgJjp9z1XOheedirsVdirsV
dirsVdirsVdirsVdirsVdirsVdiqncxetbyw/wC/EZP+CFMjIWCGUTRBfOhBBIIoRsQc4p7VrFWb
/lTqottbmsHNEvo/g/4yRVYf8KWza9k5eHIY/wA79Dqu1sXFjEv5v6UZ+bGhslxb6zEvwSAQXNOz
LujH5jb6Ms7XwURMe4tfZGewYH3h55mmdyi9L1S90u9jvbKQxzxn6GHdWHcHLMWWWOXFHm15cUck
eGXJ7F5X88aVrcaxMwttQp8Vs5+0fGMn7Xy650ul10MorlLu/U81qtDPEb5x7/1sjzOcF2KpV5o1
lNH0O6vSaSqvCAeMr7J+O59sx9Vm8PGZfi3I0uHxMgj+KeCkkmp3J6nOQevaxV7B+X8QvfI31ST+
7f6xAa/yuTX/AInnSdnji0/CfMPN9oHh1HEPIvIGVlYq2zKaEe4zmyHpAUVpF++n6pa3q9beVZCB
3AO4+kbZZhycExLuLXmx8cDHvD6EVlZQymqkVBHcHOzeMbxV2KuxV2KuxV2KuxV2KuxV2KuxV2Ku
xV2KuxV2KvAvM1kbLzBqFtSipO5Qf5DHkv8AwpGcfqocOSQ83sNLPixxPklmUN6vZXk9neQ3cB4z
QOskZ91Nd8lCZjISHMMZwEomJ5F7oh07zN5dBYcrW/i+IdSjf81Iw+8Z1o4c+LykPx8nkjxYMvnE
/j5vEtb0e70jUprC6Hxxn4X7Oh+y6+xzlc+GWORiXqsGaOSIkEDlTa2CQajrirINL8++Z9OUIl0b
iIdI7geoB8mPxfjmZi7Qyw6373Dy9n4p9K9z2LRdTi1TSrXUItluEDFfBujL9DAjOmwZRkgJDq8z
nxHHMxPRB+cNGOr+X7q0QVnC+rb+PqJuAP8AW+z9OVazD4mMx69G3R5vDyCXTq8IzknrXYq9o/LW
AxeUbVj/ALteV6H/AFyv/GudR2ZGsI87eX7TleY+VPINT/46V3/xmk/4kc5rL9R970uL6R7kNkGb
3zytdG68uabMTVmt41Y+LIvEn7xnX6SfFiifJ5DVw4csh5ppmQ47sVdirsVdirsVdirsVdirsVdi
rsVdirsVdirsVeUfmvpZg1mDUFHwXkfFz/xZFQf8RK5zva2KpiX879D0XZOW4GP839LBs1TtXYqz
f8tfNI0+9OlXb0s7tqwseiTHb7n6fPNr2Zq+CXBL6T97qu09Jxx4x9Q+5nPnHynb6/YUWkd/CCba
Y9P9Rv8AJP4ZttbpBmj/AEhydTotWcMv6J5vFr2yu7G6ktbuJobiI0eNhQj+oPY5y04SgakKL1MJ
xmLibChkWTsVel/lNrfKO50eVt0/0i2r4GgdfvofvzedkZ+cD7w6PtfBuJj3F6Lm7dI8T8/6J+i/
MU3BaW13/pENOg5H41+hq/RnK9oYPDynuO71XZ+fxMQ7xsx2ON5ZFjjUtI5Coo6kk0AzCAs0HNJo
WXvtlBFougRROR6dhbVkYbV9NKufpIJzsIRGLGB/NDx85HLkJ/nF4E7s7s7bsxLE+53zjybewApb
ir238vGZvJ2nE7mko+gTOBnVdnH9xH4/eXle0R+/l8PuDI8zXCdirsVdirsVdirsVdirsVdirsVd
irsVdirsVdirHvPeiHVvLs8ca8rm3/fwAdSyA1X/AGSkj55ha/B4mIgcxu5ugz+HlBPI7PEM5V6p
2KuxV6r+X/nlb2OPSdSkpeoONtOx/vQOik/zj8fnnQdn6/iHBP6unn+15/tDQcJ44fT18v2Mh8y+
U9L16343K+ncoKQ3SD419j/MvsczdTpIZhvz73C02rnhO3LueS+YfJ+taG7G4iMtrX4LuMExn/W/
lPzznNRo8mLmNu96PT6zHl5HfuSPMVykfoeqS6Vq1rqEe5gcFlH7SHZ1+lSRluDKccxIdGrPiGSB
ier36GaKeGOaJg8Uqh42HQqwqD92djGQIsPHSiQaLF/zI0P9JaA1xEvK5sCZkp1Kf7sX7vi+jNf2
lg48djnHf9bsOzc/Bko8pbfqYt+WvlSa4vU1m7jK2tv8VqGFPUk7MPZP15gdmaQylxy5Dk5/aerE
Y8EeZ5sm/MzWRY+X2tENJ78+ko7+mKGQ/qX6czu1M3BjrrJwey8PHkvpF47nNPSuxV7d+XqFPJ2n
A9xKf+Cmc/xzquzh+4j8fvLyvaJ/fy+H3BkWZrhOxV2KuxV2KuxV2KuxV2KuxV2KuxV2KuxV2Kux
V2KvFvP/AJcOj608kS0srwmWAjopr8af7Enb2pnLdoabw8lj6ZPU9n6nxMdH6osYzBc52KtqzKwZ
SQwNQRsQRir0byh+ZYVY7HXGNBRYr7qfYSgf8S+/xzd6PtP+HJ8/1uk1nZn8WP5fqejJJBcQh42W
WGRaqykMrKfAjYg5uwQR3h0hBB7ixjWPy38uagTJFGbGc78oKBCfeM/D/wADTMDN2binuPSfJz8P
aWWGx9Q82I3/AOU2uQkmzuIbpB0DVic/QeS/8NmtydkZB9JB+x2WPtfGfqBH2vRPK1jeWHl+ys73
a5hTi4BDU+I8RUeC0zdaXHKGMRlzDpdVkjPIZR5FNCARQ9MyHHWO8NvAzuVighUsx6KqKKn5ADAS
APIJAJPmXhvm/wAwvrusyXQqLaP93aoe0YPUjxY7nOT1mo8Wd9Oj1mj03hQrr1STMVynYq958oW5
g8saZGRQm3RyP+Mg5/8AG2ddo41iiPJ5HWSvLI+ab5kuM7FXYq7FXYq7FXYq7FXYq7FXYq7FXYq7
FXYq7FXYqlfmTQbbXNKlspvhc/FBL3SQdG/gfbMfU6cZYGJcjTag4piQeF39jdWF5LZ3SGOeFuLq
f1j2PUZyeTGYSMTzD1mPIJxEhyKHyDN2KuxVN9D8061oj/6FOfRJq1vJ8UR/2Pb5ihzIwavJi+k7
d3Rx8+kx5fqG/f1Z7pP5s6ZMFTU7d7WTvJH+8j+dNmH3HNxh7XgfrFOnzdkTH0G2TWvm3yzdAGHU
rfforuI2/wCBficzoazFLlIODPR5Y84lEjXNFLKo1C2LMQqj1o6knoBvlnj4/wCcPm1+Bk/mn5I3
LWpiH5o3F7D5apb7RSzLHdMOvpkEgfIsBmt7VlIYtup3dl2VGJy79Bs8ezmnpXYqrWVrJd3kFrF/
eTyLEnzcgD9eShAykAOrGcxGJJ6PoeGJIYUhQUSNQij2UUGdpEUKeLkbNr8KHYq7FXYq7FXYq7FX
Yq7FXYq7FXYq7FXYq7FXYq7FXYqxfzv5Ni122Fxb0TU4FpE52Eijf02P6jmv12iGUWPqDsNDrTiN
H6S8bngmgmeGZGjljPF43BDAjsQc5mUSDR5vTRkCLHJTwJdirsVdirsVdir3XyZrX6X8v21yzcri
Mejc+PqJtU/6wo3051miz+JjB68i8nrcHh5COnMI7WtMj1TSrqwkpxuIyoJ7N1Vv9iwBy7PiGSBi
erTgynHMSHR8/wA0MsE0kMqlJYmKSKeoZTQj7846USDRexjIEWFmBLMvyv0Y3mvG+dawWC8qnoZH
BVB9G5+jNn2Vh4snF0i6ztXNw4+HrJ69nSPNuxV2KuxV2KuxV2KuxV2KuxV2KuxV2KuxV2KuxV2K
uxV2KuxVjHnDyRaa9GZ4SLfU0FEm/ZcDoslP19RmBrNDHMLG0vxzc/R66WE0d4/jk8g1LTL7Tbt7
S9haGdOqt0I8VI2I9xnNZcUoGpCi9LiyxmLibCFyDN2KuxV2KuxVm/5Wa39U1eTTZWpDfL+7r0Eq
Akf8EtR92bXsrPwz4Dyl97qu1cHFDjHOP3PWc6J5149+ZujfUfMBu0WkF+vqinT1F2kH6m+nOa7U
w8GS+knpey83HjrrFicMMs0qQxKXlkYJGiipLMaAAZrgCTQdiSALL3Tyl5fTQ9FitNjcN+8unHeR
hv8AQvQZ1mj0/hYxHr1eT1mo8XIZdOic5lOK7FXYq7FXYq7FXYq7FXYq7FXYq7FXYq7FXYq7FXYq
7FXYq7FXYqgNZ0HS9Ztvq9/CJFFfTcbOhPdW7ZTm08MoqQbsOoniNxLzHzB+WesWBebT639oNwqi
kyj3T9r/AGP3ZodR2XOG8fUPtd9p+1IT2l6T9jDnR0Yo6lXU0ZSKEH3BzWEU7MG1uKuxV2KqltcS
21xFcQtwmhdZI2HZlNQfvwxkYkEcwiURIEHkX0NZXIurOC5A4ieNJAvhzUNT8c7SEuKIPe8XOPDI
juSTzz5efW9DeKBeV5bsJbYbCpGzJU/zA/fTMTX6fxcdD6hycvQajwsln6TzSryJ5DbSn/SOpqpv
6UgiBDCIEbknpzPTbpmPoNB4fqn9X3ORr9f4nph9P3s2zauqdirsVdirsVdirsVdirsVdirsVdir
sVdirsVdirsVdirsVdirsVdirsVdiqXar5d0TVR/p9pHM/QS04yD5OtG/HKMumx5PqFt+LU5Mf0m
mJah+UenSEtYXskB7JKokX7xwP6812TseJ+kkOxx9sSH1AFI7j8p/MKE+jPbTL2+J1b7itPxzEl2
RlHIguXHtfEeYIQ3/Kr/ADX/AL7h/wCRo/pkP5LzeXzZ/wAqYfP5Ii1/KjzFI6+vLbwR1+M8mZgK
9gFofvyceycp5kBhLtbEOQJesQQpBBHDGKRxKEQeyigzooxoUHnZSs2V+FDsVdirsVdirsVdirsV
dirsVdirsVdirsVdirsVdirsVdirsVdirsVdirsVdirsVdirsVdirsVdirsVdirsVdirsVdirsVd
irsVdirsVdirsVdir58fX9dd2dtQuSzEkn1XG5+RySvcPLE81x5d06aZzJLJbxs7sakkqNyciqZ4
q7FXYq4kAEk0A6nFXnPmP81lRnt9DjDkGhvJR8P+wTv82+7DSvQLKV5rOCV/tyRo7U6VZQTgVWxV
2KuxV2KuxV2KuxV2KuxV2KuxV2KuxV2KuxV2KuxV2Ksc/MG8urTyrdS2srQy1jX1ENGAZwDQjpUY
hXmvlLXNZPmXTka+ndJJ0R0eRmUqxoQQxIwq9twK7FXYq7FXzbklewQea7Hy95S0OS6ikl+sQIqL
Fx24oCSeRHjgVF6L+YOh6nFdStzs47NVeV5+IHFjTbiW3r2wUqTX35vafFMVsrCS5jBp6kjiKvuB
xkP34aVE6R+a2j3cyw30D2BY0EhYSRj/AFmAUj/gcaVM/OHnCz0K3jjeJ7iW8jkMHAgJsAKs1enx
dhgV4jklet+WPzG069ksNKa2ljuXVYefwmPkq08a0NPDBSst1LVLDTLRru+mWCBerN1J8FA3J9hg
VhF5+cFikpW006SeMGgeSQRV96BZMNKqaf8Am7pcsgW9spbVSaeojCZR7nZD9wxpWcWl3a3lslza
yrNBIKpIhqCMCsX1v8yNI0nU5tPlt55ZYKB3QLxqQGoKsD3w0rd/+ZGi2ukWt+iPLNeKzQ2myuAr
FCXO4UclIB3rjSoHRPzTt9R1GCyl06SF7h1jjaOQS/ExoOQKx0HjjSorVfzO0fTtRuLF7aeV7dzG
7qEClh1pVgeuNKjLrz/5ftdKttQld63ac4bVQDMQCVNRWgFQdyflgVjjfnFH6lF0kmOv2jOAafL0
z+vDSso8teddH14mKAtDdqOTW0tAxHcqRswwKn5IAJJoB1OKsP1j8z/L9hI0NsHv5V2JioIq/wCu
ev8AsQRhpUoX8405DlpJC9yLip+70xjSsl8v+e9B1p1gidre7bpbzUBb/UIJVv1+2BWRYqknmPzf
o+gqBdu0ly4qltEAXI8TUgKPnirEz+cUfqUGlH06/a9cVp8vT/jhpV3mnzjo+veTrtbVzHco0Re2
loHA9QbihIYfLFWE+Uf+Un0v/mJj/wCJDFXu11dW1pbvcXMiwwRiryOaADArCNR/NzSoZSljZyXa
qaeo7CFT7rs7feBhpVKz/OCweQC706SBCftRyCWnvQrHjSs20vVdP1S0W7sZlmhbao6g+DA7g+xw
K+eMkrN/Of8Ayh/lf/jCf+IJgVjOg6Pc6zqkOnQNwMxq7ncKqirMR3oMKvSz+U/l76mYlmn+s02u
Cw+148KUp7fjgtXlV9aS2V7cWcpBltpHicr05IxU0+7Cr0LTvLkXmnyZp809y8VzpyTxRsAGUgN8
IYGnQBRscCvNsKvWfLH5cWVlPYaq93JLMirN6QUKnJl+k0FcFqwvz7r82ra9Ogc/VLNmht07fCaM
/wDsiPupiqdeSvy7tdT05NS1N3EU1fq8EZCkqDTkzUPUjYY2qj558gW+j2Y1LTndrUMFnhkIJTls
rK221dsVWfldr0tprH6LkYm1vq8VPRZlFQw/1gKH6MSqU+fv+Uv1L/XX/k2uKr/J3k6fzFPMfW+r
2lvT1ZacmLNWiqKjw3xVnnlv8uINF1oaibs3KRKwgjZOJVmHGpPIg0UntjavN/N3/KT6p/zEyf8A
Ejiqc+R/I419JLy8leKxhb01VKc3YCpAJqABXwxVNPOv5d6bpukPqWmO6fV6evDI3IMrELVTStQT
jasL8v3ctprlhcRGjxzx9NqgsAw+kGmFXoH5q+ZJreOLRbZyhnX1bth14VoqV9yCT9GAKwnyr5Xu
/MN+1vCwigiAa4nIqFBNAANqsewxVnk/5Q6MbciC9uEuKbO/Bkr/AKoVT/w2Nq811TTb3SdRlsrk
cLmBhup2PdWU+BG4wq9X8p+cWvPKlzfXh53WmI31g95Aq8kb5t0+eBXkl/fXN/eTXl05knnYu7Hx
PYew6DCr0ny/+Venmxjm1h5GupVDGCNuKx134k0qW8cFqxzzz5HGgeldWkjS2EzcPjoXjelQCQAC
CBtiqUeUf+Un0v8A5iY/+JDFWQ/mlr8t1q36JjYi1s6GRR0aZhWp/wBVTQfTiFUfIvkWLXY5L6+k
aOyjf00SOgd3ABO5BooqO2+Kpp5v/LWystMl1DSnkBtl5zW8hDAoPtMpoCCBua42rHPIevTaTr8A
5UtbtlguU7UY0Vv9iTX5VxVjmFWb+c/+UP8AK/8AxhP/ABBMCqX5UgHzQ1e1tJT/AIJcSr2DArwf
zooXzVqYHT12P0nc4Vejflx/yhbf68+JV4/hV9E6Z/xzbT/jDH/xEZFXzzKXaV2k+2WJf513ySsm
0yf8w1sIRp4vfqQX9x6aEpxr+zt0wKuvofzIvrZ7W7hvpreSnONozQ8SGFdvEYqs8t+WPMsHmDTZ
n064ijjuYmkkZCqhA4LEk/5NcVQ/n7/lL9S/11/5NrirPfymjVfLczj7T3Tkn5IgxKs1wK8E83f8
pPqn/MTJ/wASOFXqH5YoF8pQEdXklY/PmR/DEqmfnFFfytqgPQW7n6VFR+rArw7TP+Olaf8AGaP/
AIkMkqf/AJlGT/GF5y+yFi9P/V9Jf41wBWWflAIv0XfkU9UzqH8eIT4fxriVZ9gV5F+bQQeZYeNK
m0j508fUk6/RTCFQXlgy/wCGPM/CtPRt+VOn9438K4qx/T+H1+25/Y9VOVelOQrhV9FZFWKfmcE/
wjccqV9SLhXx5jp9FcIV5f5R/wCUn0v/AJiY/wDiQxVrzaXPmfVC/X61KB32DED8MVRmhzeeVsAN
HF39S5NT0UJTl+1Q0xVGzt+Z08MkEyX7xSqUkQoaFWFCOncYqlCeUvNIdSul3IYEEH026/SMVSfC
rN/Of/KH+V/+MJ/4gmBVL8qf+Uob/mGk/wCJJiVewYFeE+dv+Ur1P/jMf1DCr0X8tlLeTCqipMkw
A9ziVePYVeveXvzD0SaDTNN4zfXJBFbEFRxD0C1LFulcFK8/87aJLpPmC5jK0t53aa2bsUc1oP8A
VO2Ksq8i/mDptnpsel6szQ+hUQXIUspQmoVgtWBFdtumNKq+b/zMhESW/l64Jm5cpbrh8IUfsqJB
vU9TTGlb8i+cfNOs6strcCKa0RS9zNw4sop8NCpC1Le3jirEfP3/ACl+pf66/wDJtcVegflR/wAo
w/8AzEyf8RTEqzLArwTzd/yk+qf8xMn/ABI4Vepfln/yiFr/AK8v/Jw4lUy83f8AKL6p/wAw0n/E
TgV4bpn/AB0rT/jNH/xIZJWf/mxoEzSQ61AhaMKIbqg+zQko5+deNflgCsW8nea5vL1+0nAzWc4C
3MINDt9ll/ylqcVegz/mr5aS29SJZ5ZiPhg4cTXwZieI+iuNK8u1rV7vWdUmv7j+9mI4ovRVGyqv
yGFXqPk/ye1t5TurS9X07nVUb1gRvGrLxjBHiteWBXk19ZXNjdzWlyhSeBikinxH8D2wq9O8v/ml
pTWEcerl4byNQryqpdJKbcvhqQT32wUrG/PnniLXRHZWKMlhC3qM77NI4BANB0UA4qkvlH/lJ9L/
AOYmP/iQxVOvzO0SWy19r5VP1W/AdWHQSKAHU/dy+nEKiPy/882ejwPp2pcltWcyQzqC3AsPiDKN
6bV2xVP/ADR+ZmmQ2DRaJP619JQLMEPCMdyfUA5GnQUxpUn8q+e/OGo6va2BMV0sjj1maMKVjH22
qnECg9uuKsCm9H1n9Hl6PI+nzpy4125U2rTrhVnPnj6p/g7y36fqV9Mely4/Z9NeXKnetKUwKpfl
N9X/AMQz8+Xr/V29KlOFOS8uXevSmJV63gV4Z589D/Fmo+jyp6g58qfb4jlSnavTCFelflp9X/wn
b+jyrzk9XnT7fLfjTtgKvM/OX6C/Ttx+iOfp829atPT9Su/pU341/s2wqoeVPQ/xLpnr8+P1mLjw
pXnzHDr25Urir1zzr/hn9E/7nqelU+hx/vudP91U3r49vHArxK6+qfWH+qep9Xr+79WnOn+Vx2yS
t2n1T6xH9b9T6tX976XHnT/J5bYq9u8mf4b/AEOv6Cp9Xr++5f3vqU39X/K/Dw2yKvLvzC9H/F1/
6fLqnqcqfa9Na0p2whXoP5XfV/8ACq+jy5etJ63KlOe32aduNMSrLsCvCPOv1f8AxVqXocuPrNz5
0rz/AG6U7cq0wq9R/Lj0f8I2fpcusnPlT7XqGtKdsBVMvNPo/wCHNT9bl6f1aTlwpy+yelcVeG6N
6P6WsvW5el68fPhTlTkOldskr6CuPq/1eT6zw+r8T63qU4cKfFyrtSnWuRV4l5t/wf8AWm/QPrcq
/H/yz+/Dl8f8PDCrHsKs/wDy6/wZ9ai9fn+mKj0frNPS5dvSpty8OW/hgKvU8CsA/M7/AApwX63y
/TPH9z6FOXHt6tduPh38MIV5ZhVmui/4M/wnqf8Ae/pP0R63Pj6n2lp6P7PHnTl3/DAqV+T/ANF/
4n03l69fXXhTh9v9mvtypXFXr3mT9B/oib9N8PqH7XOteXbhT4uXhx3wK8L1T9F/XH/RnrfVK/B9
Y48/+F2ySoaP0/UX1K+nUc+NK070rir2L8vP8KfUX/Q3L6zQfW/Xp9Y+mm3Hw47fTgKv/9k=</xapGImg:image>
               </rdf:li>
            </rdf:Alt>
         </xap:Thumbnails>
      </rdf:Description>
      <rdf:Description rdf:about="" xmlns:xapMM="http://ns.adobe.com/xap/1.0/mm/" xmlns:stRef="http://ns.adobe.com/xap/1.0/sType/ResourceRef#">
         <xapMM:DocumentID>uuid:8C1399EF9C94DF11AE6F98C9A600FE59</xapMM:DocumentID>
         <xapMM:InstanceID>uuid:8D1399EF9C94DF11AE6F98C9A600FE59</xapMM:InstanceID>
         <xapMM:DerivedFrom rdf:parseType="Resource">
            <stRef:instanceID>uuid:8B1399EF9C94DF11AE6F98C9A600FE59</stRef:instanceID>
            <stRef:documentID>uuid:891399EF9C94DF11AE6F98C9A600FE59</stRef:documentID>
         </xapMM:DerivedFrom>
      </rdf:Description>
      <rdf:Description rdf:about="" xmlns:pdf="http://ns.adobe.com/pdf/1.3/">
         <pdf:Keywords>internode, network, international, peer, transit, 4739, as4739, asn4739, australia</pdf:Keywords>
      </rdf:Description>
      <rdf:Description rdf:about="" xmlns:xapTPg="http://ns.adobe.com/xap/1.0/t/pg/" xmlns:stDim="http://ns.adobe.com/xap/1.0/sType/Dimensions#" xmlns:xapG="http://ns.adobe.com/xap/1.0/g/">
         <xapTPg:MaxPageSize rdf:parseType="Resource">
            <stDim:w>842.000000</stDim:w>
            <stDim:h>595.000000</stDim:h>
            <stDim:unit>Pixels</stDim:unit>
         </xapTPg:MaxPageSize>
         <xapTPg:NPages>1</xapTPg:NPages>
         <xapTPg:HasVisibleTransparency>False</xapTPg:HasVisibleTransparency>
         <xapTPg:HasVisibleOverprint>False</xapTPg:HasVisibleOverprint>
         <xapTPg:PlateNames>
            <rdf:Seq>
               <rdf:li>Cyan</rdf:li>
               <rdf:li>Magenta</rdf:li>
               <rdf:li>Yellow</rdf:li>
               <rdf:li>Black</rdf:li>
            </rdf:Seq>
         </xapTPg:PlateNames>
         <xapTPg:SwatchGroups>
            <rdf:Seq>
               <rdf:li rdf:parseType="Resource">
                  <xapG:groupName>Default Swatch Group</xapG:groupName>
                  <xapG:groupType>0</xapG:groupType>
               </rdf:li>
            </rdf:Seq>
         </xapTPg:SwatchGroups>
      </rdf:Description>
   </rdf:RDF>
</x:xmpmeta>
                                                                                                    
                                                                                                    
                                                                                                    
                                                                                                    
                                                                                                    
                                                                                                    
                                                                                                    
                                                                                                    
                                                                                                    
                                                                                                    
                                                                                                    
                                                                                                    
                                                                                                    
                                                                                                    
                                                                                                    
                                                                                                    
                                                                                                    
                                                                                                    
                                                                                                    
                                                                                                    
                           
<?xpacket end="w"?>
	</metadata>
<path fill="#919194" d="M40.547,78.153c-2.13,0-3.897,0.709-5.287,2.13c-1.394,1.421-2.092,3.384-2.092,5.894  c0,2.102,0.529,3.839,1.59,5.216c1.346,1.719,3.418,2.58,6.216,2.58c1.77,0,3.239-0.386,4.419-1.153  c1.044-0.675,1.845-1.634,2.39-2.869v-0.017l0.031-0.149c0-0.197-0.139-0.356-0.325-0.386l-3.432-0.54l-0.004,0.004l-0.057-0.01  c-0.17,0-0.309,0.105-0.37,0.247l-0.003,0.01c-0.224,0.607-0.54,1.062-0.933,1.357c-0.448,0.342-1.014,0.515-1.682,0.515  c-0.983,0-1.801-0.329-2.458-0.987c-0.574-0.58-0.906-1.356-1.008-2.336v-0.014c0-0.224,0.18-0.407,0.4-0.42h9.831v-0.004  c0.238,0,0.434-0.19,0.434-0.427c-0.013-2.855-0.674-4.988-1.99-6.409C44.826,78.896,42.941,78.153,40.547,78.153 M43.67,84.776  h-5.792c-0.146-0.027-0.255-0.146-0.278-0.295c0.047-0.956,0.336-1.722,0.892-2.302c0.61-0.641,1.373-0.96,2.306-0.96  c0.871,0,1.611,0.302,2.218,0.905c0.536,0.543,0.851,1.303,0.932,2.283l0.007,0.027C43.952,84.603,43.833,84.746,43.67,84.776z"/>
<path fill="#919194" d="M5.72,72.74H2.369c-0.312,0-0.562,0.251-0.562,0.559v19.768c0,0.308,0.25,0.563,0.562,0.563H5.72  c0.309,0,0.56-0.255,0.56-0.563V73.299C6.28,72.991,6.029,72.74,5.72,72.74"/>
<path fill="#919194" d="M21.413,79.848c-0.4-0.492-0.987-0.902-1.763-1.214c-0.78-0.322-1.638-0.482-2.578-0.482  c-2.021,0-3.71,0.777-5.08,2.313c-0.125,0.01-0.217-0.098-0.217-0.305v-1.099c0-0.308-0.251-0.559-0.559-0.559H8.384  c-0.312,0-0.563,0.251-0.563,0.559v14.006c0,0.308,0.251,0.563,0.563,0.563h3.13c0.309,0,0.56-0.255,0.56-0.563v-6.291  c0-1.689,0.105-2.849,0.322-3.479c0.22-0.628,0.62-1.126,1.211-1.509c0.583-0.376,1.248-0.57,1.98-0.57  c0.58,0,1.068,0.136,1.482,0.4c0.407,0.265,0.702,0.638,0.885,1.119c0.18,0.478,0.254,2.608,0.254,2.608  c0.007,0.312,0.021,0.817,0.021,1.122v6.6c0,0.308,0.247,0.563,0.556,0.563h3.133c0.312,0,0.563-0.255,0.563-0.563v-8.845  c0-1.166-0.078-2.061-0.237-2.688C22.088,80.906,21.81,80.343,21.413,79.848"/>
<path fill="#919194" d="M32.312,90.28c-0.753,0.254-1.329,0.379-1.723,0.379c-0.281,0-0.522-0.064-0.722-0.196  c-0.193-0.132-0.322-0.302-0.376-0.509c-0.058-0.203-0.078-1.6-0.078-1.6c-0.004-0.306-0.007-0.811-0.007-1.12v-4.988  c0-0.302,0.251-0.556,0.559-0.556h1.798c0.308,0,0.559-0.255,0.559-0.562v-2.069c0-0.305-0.251-0.556-0.559-0.556h-1.798  c-0.308,0-0.559-0.254-0.559-0.563v-4.246c0-0.305-0.22-0.437-0.492-0.288l-3.269,1.808c-0.271,0.145-0.488,0.522-0.488,0.83v1.896  c0,0.309-0.258,0.563-0.567,0.563h-0.827c-0.312,0-0.563,0.251-0.563,0.56v2.068c0,0.305,0.251,0.56,0.563,0.56h0.827  c0.309,0,0.567,0.254,0.567,0.559v6.04c0,1.418,0.04,2.357,0.129,2.822c0.115,0.657,0.312,1.176,0.6,1.559  c0.288,0.384,0.743,0.699,1.356,0.943c0.611,0.244,1.303,0.363,2.072,0.363c1.248,0,2.818-0.441,2.818-0.441  c0.292-0.088,0.506-0.41,0.472-0.715L32.312,90.28"/>
<path fill="#919194" d="M55.388,78.64c-0.539,0.326-1.482,1.567-1.482,1.567c-0.183,0.244-0.339,0.19-0.339-0.115v-1.031  c0-0.309-0.251-0.56-0.563-0.56h-2.831c-0.309,0-0.56,0.251-0.56,0.56v14.006c0,0.308,0.255,0.563,0.56,0.563h3.13  c0.308,0,0.563-0.255,0.563-0.563V88.95c0-2.574,0.118-4.266,0.356-5.074c0.234-0.807,0.559-1.366,0.973-1.675  c0.414-0.309,0.916-0.465,1.509-0.465c0.614,0,1.489,0.414,1.489,0.414c0.278,0.133,0.597,0.011,0.705-0.281l1.123-2.964  c-0.899-0.499-1.828-0.753-2.798-0.753C56.541,78.152,55.928,78.318,55.388,78.64"/>
<path fill="#919194" d="M74.762,79.848c-0.4-0.492-0.987-0.902-1.767-1.214c-0.776-0.322-1.631-0.482-2.57-0.482  c-2.018,0-3.714,0.777-5.077,2.313c-0.132,0.01-0.22-0.098-0.22-0.305v-1.099c0-0.308-0.255-0.559-0.563-0.559h-2.832  c-0.309,0-0.563,0.251-0.563,0.559v14.006c0,0.308,0.254,0.563,0.563,0.563h3.13c0.305,0,0.56-0.255,0.56-0.563v-6.291  c0-1.689,0.108-2.849,0.328-3.479c0.214-0.628,0.618-1.126,1.205-1.509c0.586-0.376,1.251-0.57,1.983-0.57  c0.577,0,1.069,0.136,1.479,0.4c0.414,0.265,0.709,0.638,0.885,1.119c0.186,0.478,0.258,2.608,0.258,2.608  c0.006,0.312,0.02,0.817,0.02,1.122v6.6c0,0.308,0.247,0.563,0.556,0.563h3.13c0.309,0,0.563-0.255,0.563-0.563v-8.845  c0-1.166-0.078-2.061-0.234-2.688C75.44,80.906,75.162,80.343,74.762,79.848"/>
<path fill="#919194" d="M91.432,80.382c-1.557-1.485-3.551-2.231-5.989-2.231c-1.577,0-3.001,0.332-4.28,0.987  c-1.278,0.654-2.265,1.604-2.964,2.852c-0.698,1.244-1.044,2.526-1.044,3.859c0,1.74,0.346,3.215,1.044,4.425  c0.699,1.214,1.72,2.133,3.056,2.761c1.339,0.627,2.747,0.939,4.218,0.939c2.388,0,4.368-0.753,5.935-2.258  c1.57-1.506,2.357-3.405,2.357-5.698C93.765,83.75,92.988,81.871,91.432,80.382 M88.261,89.511  c-0.756,0.801-1.696,1.201-2.808,1.201c-1.116,0-2.045-0.4-2.808-1.201c-0.763-0.797-1.136-1.943-1.136-3.449  c0-1.498,0.373-2.648,1.136-3.448c0.763-0.797,1.692-1.197,2.808-1.197c1.116,0,2.052,0.4,2.808,1.197  c0.753,0.8,1.126,1.936,1.126,3.421C89.387,87.555,89.014,88.714,88.261,89.511z"/>
<path fill="#919194" d="M110.009,72.741h-3.13c-0.309,0-0.563,0.251-0.563,0.559v6.959c-1.316-1.404-2.869-2.106-4.673-2.106  c-1.967,0-3.588,0.665-4.87,2.001c-1.285,1.336-1.926,3.29-1.926,5.85c0,2.509,0.661,4.469,1.98,5.867  c1.316,1.4,2.9,2.102,4.751,2.102c0.913,0,1.811-0.213,2.71-0.634c0.892-0.427,1.943-1.529,1.943-1.529  c0.207-0.221,0.38-0.153,0.38,0.156v1.102c0,0.305,0.258,0.559,0.56,0.559h2.838c0.305,0,0.559-0.254,0.559-0.559V73.3  C110.568,72.992,110.317,72.741,110.009,72.741 M105.309,89.636c-0.692,0.783-1.526,1.173-2.51,1.173  c-1.234,0-2.2-0.522-2.889-1.566c-0.472-0.723-0.712-1.893-0.712-3.507c0-1.502,0.339-2.628,1.024-3.384  c0.685-0.757,1.533-1.133,2.547-1.133c1.044,0,1.899,0.38,2.567,1.15c0.668,0.763,1.004,2.014,1.004,3.754  C106.34,87.679,105.994,88.849,105.309,89.636z"/>
<path fill="#919194" d="M119.24,78.162c-2.13,0-3.893,0.712-5.287,2.13c-1.397,1.424-2.092,3.388-2.092,5.897  c0,2.099,0.529,3.835,1.587,5.219c1.343,1.716,3.422,2.577,6.219,2.577c1.767,0,3.236-0.386,4.416-1.153  c1.044-0.674,1.841-1.634,2.391-2.868l0.003-0.018l0.027-0.152c0-0.19-0.136-0.353-0.322-0.387l-3.429-0.539l-0.01,0.007  l-0.061-0.007c-0.166,0-0.302,0.099-0.363,0.244l-0.007,0.01c-0.227,0.608-0.539,1.059-0.932,1.353  c-0.455,0.346-1.011,0.516-1.682,0.516c-0.977,0-1.801-0.332-2.456-0.983c-0.572-0.577-0.912-1.357-1.007-2.337v-0.014  c0-0.223,0.18-0.41,0.4-0.42h9.832v-0.004c0.237,0,0.427-0.189,0.427-0.427c-0.007-2.855-0.671-4.995-1.991-6.413  C123.523,78.905,121.634,78.162,119.24,78.162 M122.36,84.788h-5.789c-0.145-0.03-0.257-0.149-0.278-0.295  c0.048-0.959,0.339-1.729,0.889-2.306c0.607-0.637,1.377-0.956,2.309-0.956c0.868,0,1.604,0.302,2.218,0.906  c0.539,0.539,0.851,1.298,0.929,2.279l0.004,0.027C122.642,84.616,122.519,84.755,122.36,84.788z"/>
<path fill="#F47836" d="M81.457,18.844C70.225,3.553,50.869-2.85,39.169,5.74c-0.899,0.662-1.706,1.408-2.476,2.191  c-0.227,0.221-0.437,0.448-0.651,0.675c-0.173,0.163-0.332,0.342-0.498,0.512l-0.092,0.105c-9.19,9.597-8.783,28.527,1.923,42.383  c8.217,10.631,20.751,17.129,33.891,15.152l0.17-0.024c0.817-0.125,1.156-2.201,0.987-3.588c-0.031-0.4-0.139-0.885-0.316-1.109  H72.09c-0.088-0.247-0.179-0.488-0.277-0.708c-0.947-2.096-2.554-5.85-3.538-8.187c-0.278-0.654-0.508-0.881-1.01-0.82  c-7.061,0.898-16.505-3.317-22.789-11.49c-5.266-6.853-7.389-14.84-6.341-21.432c0.942-3.985,2.865-7.413,5.751-9.628  c8.169-6.28,21.252-2.713,29.802,8.411c8.634,11.241,8.261,21.506,2.364,29.893l-0.024,0.044l-0.017,0.01  c-0.265,0.407-1.028,1.668-1.221,2.001c-0.39,0.563-0.299,1.038-0.146,1.387c2.648,6.586,4.629,12.069,5.182,12.052  c0.207-0.01,0.403-0.129,0.597-0.288c0.21-0.061,0.444-0.193,0.708-0.458c4.575-4.571,7.298-11.632,7.515-19.336  C89.284,35.498,87.154,26.599,81.457,18.844 M71.348,17.145l-0.01-0.007c-7.634-9.054-19.286-11.801-26.024-6.121  c-6.495,5.467-6.125,16.831,0.82,25.685c3.303,4.402,7.322,7.033,10.822,8.597c4.364,2.048,7.803,2.407,7.945,2.363l0.105-0.132  l0.051-0.139l0.007-0.021l0.03-0.108c0.112-0.682,0.061-0.882,0.065-0.875c-0.004-0.322-0.037-0.634-0.109-0.828  c-0.732-1.96-3.204-7.297-3.686-8.603c-0.339-0.919-0.844-2.272-1.112-2.32c-0.383-0.067-1.068-0.159-1.601-0.386  c-0.268-0.119-0.569-0.234-0.919-0.353c-2.231-0.776-4.235-1.936-6.453-4.374c-4.68-5.151-5.402-12.117-1.621-15.549  c3.781-3.435,10.512-1.862,15.175,2.947c0.957,0.983,1.73,2.042,2.354,3.144c0.074,0.132,0.156,0.261,0.227,0.4  c0.275,0.515,0.509,1.041,0.705,1.577c0.038,0.098,0.068,0.2,0.102,0.302c1.048,3.069,0.879,6.385-0.715,9.559  c-0.075,0.153-0.445,0.882-0.526,1.133v0.088c-0.037,0.166-0.027,0.312,0.02,0.431c1.34,3.323,4.914,11.513,5.196,11.503  l0.044-0.017l0.098,0.051c0.427,0.064,1.275-0.98,1.36-1.096C78.91,37.417,78.581,25.735,71.348,17.145z"/>
</svg>